<svg width="48" height="48" viewBox="0 0 48 48" fill="none" xmlns="http://www.w3.org/2000/svg">
<path d="M39.6313 17.9531H35.5344C34.7563 17.9531 34.1281 17.325 34.1281 16.5469C34.1281 15.7687 34.7563 15.1406 35.5344 15.1406H39.6313C40.4094 15.1406 41.0375 15.7687 41.0375 16.5469C41.0375 17.325 40.4047 17.9531 39.6313 17.9531ZM31.0484 17.9531H12.3359C11.5578 17.9531 10.9297 17.325 10.9297 16.5469C10.9297 15.7687 11.5578 15.1406 12.3359 15.1406H31.0484C31.8266 15.1406 32.4547 15.7687 32.4547 16.5469C32.4547 17.325 31.8219 17.9531 31.0484 17.9531Z" fill="#7EDAD2"/>
<path d="M17.7344 40.9297C17.7344 41.2683 17.8011 41.6035 17.9306 41.9163C18.0602 42.2291 18.2501 42.5133 18.4895 42.7527C18.7289 42.9921 19.0131 43.182 19.3259 43.3116C19.6387 43.4411 19.9739 43.5078 20.3125 43.5078C20.6511 43.5078 20.9863 43.4411 21.2991 43.3116C21.6119 43.182 21.8961 42.9921 22.1355 42.7527C22.3749 42.5133 22.5648 42.2291 22.6944 41.9163C22.8239 41.6035 22.8906 41.2683 22.8906 40.9297C22.8906 40.5911 22.8239 40.2559 22.6944 39.9431C22.5648 39.6303 22.3749 39.3461 22.1355 39.1067C21.8961 38.8673 21.6119 38.6774 21.2991 38.5478C20.9863 38.4182 20.6511 38.3516 20.3125 38.3516C19.9739 38.3516 19.6387 38.4182 19.3259 38.5478C19.0131 38.6774 18.7289 38.8673 18.4895 39.1067C18.2501 39.3461 18.0602 39.6303 17.9306 39.9431C17.8011 40.2559 17.7344 40.5911 17.7344 40.9297Z" fill="#7EDAD2"/>
<path d="M37.4766 40.9297C37.4766 41.6134 37.7482 42.2692 38.2317 42.7527C38.7152 43.2362 39.3709 43.5078 40.0547 43.5078C40.7384 43.5078 41.3942 43.2362 41.8777 42.7527C42.3612 42.2692 42.6328 41.6134 42.6328 40.9297C42.6328 40.2459 42.3612 39.5902 41.8777 39.1067C41.3942 38.6232 40.7384 38.3516 40.0547 38.3516C39.3709 38.3516 38.7152 38.6232 38.2317 39.1067C37.7482 39.5902 37.4766 40.2459 37.4766 40.9297Z" fill="#7EDAD2"/>
<path d="M41.7104 33.851H17.7572C15.99 33.851 14.551 32.4119 14.551 30.6447V30.5791L12.8682 12.6588V12.6494V12.6401L12.5869 10.0432C12.1838 5.97443 9.88693 4.53536 8.02599 4.03849L4.7588 3.23693C4.00411 3.04943 3.24474 3.51349 3.05724 4.26818C2.86974 5.02286 3.3338 5.78224 4.08849 5.96974L7.31818 6.76193C8.07755 6.96349 8.63536 7.34318 9.0338 7.91974C9.43693 8.50099 9.69005 9.31193 9.78849 10.3291L10.0697 12.9354L11.7385 30.7151C11.776 34.001 14.4619 36.6635 17.7572 36.6635H41.7104C42.4885 36.6635 43.1166 36.0354 43.1166 35.2572C43.1166 34.4791 42.4885 33.851 41.7104 33.851Z" fill="#3C4858"/>
<path d="M39.3891 9.27344H17.8594C17.0812 9.27344 16.4531 9.90156 16.4531 10.6797C16.4531 11.4578 17.0812 12.0859 17.8594 12.0859H39.3891C40.8047 12.0859 41.9625 13.225 41.9906 14.6313L41.0578 25.2484L41.0531 25.3094V25.3703C41.0531 26.8047 39.8859 27.9719 38.4516 27.9719H20.4375C19.6594 27.9719 19.0312 28.6 19.0312 29.3781C19.0312 30.1563 19.6594 30.7844 20.4375 30.7844H38.4516C41.4141 30.7844 43.8281 28.3891 43.8656 25.4359L44.7984 14.8141L44.8031 14.7531V14.6922C44.8031 11.7016 42.375 9.27344 39.3891 9.27344Z" fill="#3C4858"/>
<path d="M19.1453 39.4766C19.4828 39.4766 19.7594 39.7531 19.7594 40.0906C19.7594 40.4281 19.4828 40.7047 19.1453 40.7047C18.8078 40.7047 18.5312 40.4281 18.5312 40.0906C18.5312 39.7531 18.8078 39.4766 19.1453 39.4766ZM19.1453 36.6641C17.2516 36.6641 15.7188 38.1969 15.7188 40.0906C15.7188 41.9844 17.2516 43.5172 19.1453 43.5172C21.0391 43.5172 22.5719 41.9844 22.5719 40.0906C22.5719 38.1969 21.0391 36.6641 19.1453 36.6641ZM38.5797 39.4766C38.9172 39.4766 39.1938 39.7531 39.1938 40.0906C39.1938 40.4281 38.9172 40.7047 38.5797 40.7047C38.2422 40.7047 37.9656 40.4281 37.9656 40.0906C37.9656 39.7531 38.2422 39.4766 38.5797 39.4766ZM38.5797 36.6641C36.6859 36.6641 35.1531 38.1969 35.1531 40.0906C35.1531 41.9844 36.6859 43.5172 38.5797 43.5172C40.4734 43.5172 42.0063 41.9844 42.0063 40.0906C42.0063 38.1969 40.4734 36.6641 38.5797 36.6641Z" fill="#3C4858"/>
</svg>
