<svg width="48" height="48" viewBox="0 0 48 48" fill="none" xmlns="http://www.w3.org/2000/svg">
<path d="M33.4719 35.7266H28.8687C28.0906 35.7266 27.4625 36.3547 27.4625 37.1328C27.4625 37.9109 28.0906 38.5391 28.8687 38.5391H33.4719C34.25 38.5391 34.8781 37.9109 34.8781 37.1328C34.8781 36.3547 34.25 35.7266 33.4719 35.7266ZM22.85 35.7266H6.89844C6.12031 35.7266 5.49219 36.3547 5.49219 37.1328C5.49219 37.9109 6.12031 38.5391 6.89844 38.5391H22.85C23.6281 38.5391 24.2563 37.9109 24.2563 37.1328C24.2563 36.3547 23.6281 35.7266 22.85 35.7266Z" fill="#7FDAD2"/>
<path d="M39.2961 6.09375L42.3686 9.16631L39.6507 11.8843L36.5781 8.81166L39.2961 6.09375Z" fill="#7FDAD2"/>
<path d="M34.8578 44.8047H9.175C6.65781 44.8047 4.60938 42.7562 4.60938 40.2391V8.19063C4.60938 5.67344 6.65781 3.625 9.175 3.625H28.825C29.6031 3.625 30.2312 4.25312 30.2312 5.03125C30.2312 5.80938 29.6031 6.4375 28.825 6.4375H9.175C8.20938 6.4375 7.42187 7.225 7.42187 8.19063V40.2391C7.42187 41.2047 8.20938 41.9922 9.175 41.9922H34.8578C35.8234 41.9922 36.6109 41.2047 36.6109 40.2391V21.7234C36.6109 20.9453 37.2391 20.3172 38.0172 20.3172C38.7953 20.3172 39.4234 20.9453 39.4234 21.7234V40.2437C39.4234 42.7562 37.375 44.8047 34.8578 44.8047Z" fill="#3C4858"/>
<path d="M42.5484 5.72237L40.7109 3.88487C39.5859 2.75987 37.6594 2.85831 36.4125 4.10518L19.6641 20.8583L16.2656 30.1677L25.575 26.7739L42.3281 10.0208C42.8953 9.45362 43.2469 8.72237 43.3172 7.95831C43.4016 7.10987 43.1156 6.29425 42.5484 5.72237ZM24.0281 24.3411L20.9766 25.4521L22.0875 22.4005L34.4953 9.99268L36.4125 11.9474L24.0281 24.3411ZM40.3406 8.03331L38.4047 9.96925L36.4875 8.01456L38.4047 6.09737C38.55 5.95206 38.6953 5.91456 38.7609 5.91456L40.5234 7.67706C40.5187 7.738 40.4812 7.888 40.3406 8.03331Z" fill="#3C4858"/>
</svg>
