<svg width="48" height="48" viewBox="0 0 48 48" fill="none" xmlns="http://www.w3.org/2000/svg">
<path d="M17.5625 25.8219C17.5625 27.8694 18.3759 29.8331 19.8237 31.281C21.2716 32.7288 23.2353 33.5422 25.2828 33.5422C27.3304 33.5422 29.2941 32.7288 30.7419 31.281C32.1897 29.8331 33.0031 27.8694 33.0031 25.8219C33.0031 23.7743 32.1897 21.8106 30.7419 20.3628C29.2941 18.9149 27.3304 18.1016 25.2828 18.1016C23.2353 18.1016 21.2716 18.9149 19.8237 20.3628C18.3759 21.8106 17.5625 23.7743 17.5625 25.8219Z" fill="#CEFFFB"/>
<path d="M31.8378 19.0027C31.4206 18.3464 30.5534 18.1495 29.8972 18.5667C29.2409 18.9839 29.0441 19.8511 29.4613 20.5073C30.1175 21.5433 30.4644 22.7433 30.4644 23.9761C30.4644 24.7542 31.0925 25.3823 31.8706 25.3823C32.6488 25.3823 33.2769 24.7542 33.2769 23.9761C33.2769 22.2089 32.78 20.4886 31.8378 19.0027Z" fill="#7FDAD2"/>
<path d="M28.4688 28.6563C27.2547 29.8234 25.6563 30.4656 23.9688 30.4656C20.3875 30.4656 17.4766 27.5547 17.4766 23.9734C17.4766 20.3922 20.3875 17.4813 23.9688 17.4813C25.0422 17.4813 26.0641 17.7344 27.0063 18.2313C27.6906 18.5969 28.5438 18.3344 28.9094 17.6453C29.275 16.9609 29.0125 16.1078 28.3234 15.7422C26.9922 15.0344 25.4875 14.6641 23.9688 14.6641C18.8359 14.6641 14.6641 18.8406 14.6641 23.9688C14.6641 29.1016 18.8406 33.2781 23.9734 33.2781C26.3875 33.2781 28.6797 32.3547 30.4188 30.6812C30.9766 30.1422 30.9953 29.2516 30.4563 28.6938C29.9219 28.1359 29.0313 28.1172 28.4688 28.6563Z" fill="#7FDAD2"/>
<path d="M40.0141 17.3625C39.1984 15.3844 39.3484 13.1203 40.375 10.8656C39.4222 9.67377 38.3424 8.58924 37.1547 7.63125C34.8953 8.65313 32.6266 8.79844 30.6484 7.97812C28.6656 7.15312 27.1656 5.4375 26.2984 3.10312C25.5297 3.01875 24.7516 2.97656 23.9641 2.97656C23.2188 2.97656 22.4828 3.01406 21.7563 3.09375C20.8797 5.42812 19.3797 7.14375 17.3922 7.96875C15.4 8.79375 13.1172 8.62969 10.8438 7.58438C9.6625 8.53125 8.58906 9.6 7.6375 10.7766C8.68281 13.0547 8.8375 15.3375 8.00781 17.3344C7.17812 19.3312 5.44844 20.8312 3.09062 21.6984C3.01094 22.4484 2.96875 23.2125 2.96875 23.9813C2.96875 24.7359 3.01094 25.4813 3.08594 26.2125C5.43906 27.0844 7.16875 28.5937 7.99375 30.5906C8.81875 32.5875 8.65469 34.8703 7.60938 37.1484C8.55625 38.325 9.62969 39.3984 10.8109 40.35C13.0891 39.3094 15.3719 39.1547 17.3641 39.9844C19.3516 40.8094 20.8469 42.5297 21.7188 44.8688C22.4594 44.9484 23.2141 44.9906 23.9781 44.9906C24.7516 44.9906 25.5109 44.9484 26.2609 44.8688C27.1375 42.5344 28.6375 40.8234 30.625 40.0031C32.6031 39.1875 34.8719 39.3375 37.1313 40.3641C38.3219 39.4078 39.4047 38.325 40.3609 37.1344C39.3391 34.875 39.1938 32.6109 40.0188 30.6328C40.8391 28.6594 42.5453 27.1641 44.8609 26.2969C44.9453 25.5375 44.9875 24.7641 44.9875 23.9859C44.9875 23.2219 44.9453 22.4672 44.8656 21.7266C42.5313 20.8359 40.8344 19.3406 40.0141 17.3625ZM37.4031 29.5453C36.3813 32.0062 36.4188 34.7391 37.4313 37.4344C34.7359 36.4172 32.0031 36.3703 29.5422 37.3875C27.0766 38.4047 25.1734 40.3641 23.9828 42.9844C22.7969 40.3594 20.8984 38.3953 18.4375 37.3734C17.2281 36.8719 15.9484 36.6234 14.6453 36.6234C13.2953 36.6234 11.9172 36.8859 10.5484 37.4016C11.5656 34.7063 11.6125 31.9734 10.5953 29.5125C9.57813 27.0469 7.61875 25.1437 4.99844 23.9531C7.62344 22.7672 9.5875 20.8688 10.6094 18.4078C11.6313 15.9469 11.5938 13.2141 10.5813 10.5187C11.9594 11.0391 13.3469 11.3062 14.7016 11.3062C16 11.3062 17.2656 11.0625 18.4703 10.5656C20.9359 9.54844 22.8391 7.58906 24.0297 4.96875C25.2156 7.59375 27.1141 9.55781 29.575 10.5797C32.0359 11.6016 34.7688 11.5641 37.4641 10.5516C36.4469 13.2469 36.4 15.9797 37.4172 18.4406C38.4344 20.9062 40.3938 22.8094 43.0141 24C40.3891 25.1813 38.425 27.0797 37.4031 29.5453Z" fill="#3C4858"/>
</svg>
