<svg width="48" height="48" viewBox="0 0 48 48" fill="none" xmlns="http://www.w3.org/2000/svg">
<path d="M43.8016 42.3406C42.9016 43.2406 41.425 43.2406 40.525 42.3406L32.4484 34.2641C31.5484 33.3641 31.5484 31.8875 32.4484 30.9875C33.3484 30.0875 34.825 30.0875 35.725 30.9875L43.8062 39.0688C44.7062 39.9641 44.7063 41.4406 43.8016 42.3406Z" fill="#7EDAD2"/>
<path d="M35.9062 20.5484C35.9062 11.6375 28.6828 4.41406 19.7719 4.41406C10.8609 4.41406 3.63281 11.6375 3.63281 20.5484C3.63281 29.4594 10.8562 36.6828 19.7672 36.6828C28.6781 36.6828 35.9062 29.4641 35.9062 20.5484ZM24.9562 32.8297C23.3156 33.5234 21.5719 33.875 19.7719 33.875C17.9719 33.875 16.2281 33.5234 14.5875 32.8297C13.0031 32.1594 11.5781 31.1984 10.35 29.975C9.12656 28.7516 8.16562 27.3266 7.49531 25.7375C6.80156 24.0969 6.45 22.3531 6.45 20.5531C6.45 18.7531 6.80156 17.0094 7.49531 15.3687C8.16562 13.7844 9.12656 12.3594 10.35 11.1312C11.5734 9.90781 12.9984 8.94688 14.5875 8.27656C16.2281 7.58281 17.9719 7.23125 19.7719 7.23125C21.5719 7.23125 23.3156 7.58281 24.9562 8.27656C26.5406 8.94688 27.9656 9.90781 29.1937 11.1312C30.4172 12.3547 31.3781 13.7797 32.0484 15.3687C32.7422 17.0094 33.0937 18.7531 33.0937 20.5531C33.0937 22.3531 32.7422 24.0969 32.0484 25.7375C31.3781 27.3219 30.4172 28.7469 29.1937 29.975C27.9656 31.1984 26.5406 32.1594 24.9562 32.8297ZM42.3141 35.9937L43.4719 34.8453C44.025 34.2969 44.0297 33.4062 43.4812 32.8578C42.9328 32.3047 42.0422 32.3 41.4937 32.8484L40.3219 34.0062L38.6531 32.3375L39.9984 30.9922C40.5469 30.4437 40.5469 29.5531 39.9984 29.0047C39.45 28.4562 38.5594 28.4562 38.0109 29.0047L35.6719 31.3437C35.1234 31.8922 35.1234 32.7828 35.6719 33.3312L40.4297 38.0891C41.0906 38.75 41.0906 39.8281 40.4297 40.4891C39.7687 41.15 38.6906 41.15 38.0297 40.4891L31.3266 33.7859C30.7781 33.2375 29.8875 33.2375 29.3391 33.7859C28.7906 34.3344 28.7906 35.225 29.3391 35.7734L36.0422 42.4766C36.9187 43.3578 38.0766 43.7937 39.2297 43.7937C40.3828 43.7937 41.5406 43.3531 42.4172 42.4766C44.175 40.7187 44.175 37.8594 42.4172 36.1016L42.3141 35.9937Z" fill="#3C4858"/>
<path d="M20.375 17.6172C20.7031 17.6172 21.0172 17.6781 21.3172 17.7953C21.4859 17.8609 21.6594 17.8938 21.8328 17.8938C22.3953 17.8938 22.925 17.5563 23.1406 17.0031C23.4266 16.2813 23.0703 15.4656 22.3484 15.1797C21.7203 14.9312 21.0547 14.8047 20.375 14.8047C19.5969 14.8047 18.9688 15.4328 18.9688 16.2109C18.9688 16.9891 19.5969 17.6172 20.375 17.6172Z" fill="#7EDAD2"/>
<path d="M24.35 18.7816C23.5719 18.7816 22.9438 19.4098 22.9438 20.1879C22.9438 21.6082 21.7906 22.7613 20.3703 22.7613C18.95 22.7613 17.7969 21.6082 17.7969 20.1879C17.7969 19.6816 17.9422 19.1894 18.2234 18.7676C18.6547 18.1207 18.4766 17.2488 17.8297 16.8176C17.1828 16.3863 16.3109 16.5644 15.8797 17.2113C15.2938 18.0926 14.9844 19.1238 14.9844 20.1879C14.9844 23.1598 17.3984 25.5738 20.3703 25.5738C23.3422 25.5738 25.7562 23.1598 25.7562 20.1879C25.7562 19.4098 25.1281 18.7816 24.35 18.7816Z" fill="#7EDAD2"/>
</svg>
