<svg width="141" height="40" viewBox="0 0 141 40" fill="none" xmlns="http://www.w3.org/2000/svg">
<path d="M129.86 34.364H133.903L140.898 16.6375H136.896L134.005 25.4661L130.959 16.6375H126.492L131.811 29.4418L129.86 34.364ZM109.794 20.8455V29.9321H105.715V16.6375H108.581L109.433 17.7988C110.543 16.8699 111.73 16.3274 113.098 16.3274C114.931 16.3274 116.325 16.8699 117.177 18.2127C118.416 17.0761 119.733 16.3274 121.411 16.3274C124.56 16.3274 126.394 17.9542 126.394 22.3685V29.9321H122.315V22.8333C122.315 20.7939 121.488 20.1999 120.172 20.1999C119.397 20.1999 118.752 20.4062 118.029 20.871C118.081 21.3358 118.107 21.826 118.107 22.3685V29.9321H114.028V22.8333C114.028 20.7939 113.201 20.1999 111.859 20.1999C111.11 20.1999 110.491 20.3807 109.794 20.8455ZM95.5683 21.9814H100.809C100.525 20.2521 99.5955 19.4256 98.2018 19.4256C97.0136 19.4256 95.8784 20.1228 95.5683 21.9814ZM98.4857 30.1906C94.5617 30.1906 91.4118 28.2543 91.4118 23.1428C91.4118 18.3668 94.4585 16.3019 97.9693 16.3019C102.203 16.3019 104.088 19.2703 104.088 23.9431H95.5422C95.8268 26.2404 97.2467 26.9121 99.1314 26.9121C100.954 26.9121 102.38 26.4623 103.483 25.7201L102.929 28.9554C101.876 29.7689 100.613 30.1906 98.4857 30.1906ZM83.298 26.7574C84.227 26.7574 84.9242 26.602 85.6468 26.0602V20.2776C85.0019 19.8898 84.3569 19.7096 83.4273 19.7096C81.4395 19.7096 80.3036 21.0518 80.3036 23.2975C80.3036 25.4923 81.4656 26.7574 83.298 26.7574ZM86.4472 28.9515C85.389 29.7519 84.1761 30.2421 82.4461 30.2421C78.806 30.2421 76.1732 27.9965 76.1732 23.3752C76.1732 18.78 79.1938 16.3019 83.0656 16.3019C83.9691 16.3019 84.8471 16.4312 85.6468 16.7406V11.0977H89.7263V29.9321H87.1444L86.4472 28.9515ZM58.8906 22.0584V12.2055H63.1241V21.9814C63.1241 25.4923 64.6987 26.2149 66.8674 26.2149C69.2168 26.2149 70.4298 25.1822 70.4298 21.9814V12.2055H74.6894V22.0584C74.6894 27.8672 72.1597 30.2937 66.6611 30.2937C61.5495 30.2937 58.8906 28.2027 58.8906 22.0584Z" fill="#05100B"/>
<path d="M48.1 22.7957C47.9283 22.6579 47.7351 22.5652 47.5249 22.5254C46.2833 23.7632 44.7681 25.0668 43.4226 25.9429C42.8018 26.3555 42.021 26.5618 41.504 26.5618C40.3139 26.5618 39.7969 25.4272 39.6415 23.6235C39.4346 21.2009 39.2949 18.2991 39.2949 13.8142C39.2949 9.2145 38.251 6.08751 35.47 5.84205C35.3525 5.83161 35.2337 5.82443 35.1097 5.82443C33.4026 5.82443 32.5748 6.7005 31.4885 8.91747C30.5576 10.8243 29.109 13.608 26.4194 18.8657C24.0915 23.4022 21.5051 27.4228 19.2803 30.2065C18.6608 30.9781 18.1711 31.5082 17.7109 31.8098C17.4034 32.0121 17.1084 32.1133 16.7976 32.1133C15.9196 32.1133 15.2785 31.3724 15.0644 29.647C15.0135 29.237 14.9867 28.7716 14.9867 28.2474C14.9867 24.6908 16.3322 18.9173 18.6594 10.4118C20.3666 4.22633 19.6426 0 15.9176 0C15.9118 0 15.9059 0 15.9 0C15.8922 0 15.8843 0 15.8758 0L15.8732 0.000652816C15.0298 0.0104451 14.3306 0.315963 13.6569 0.84605C12.9937 1.3683 12.3298 2.49637 11.7102 4.01286C11.0117 5.72128 6.76453 14.2405 0.00464782 18.6294C-0.0749954 20.298 0.869626 21.966 2.78367 22.1468C4.52603 22.3119 5.76312 21.5775 7.35598 20.5076C7.23652 21.0396 7.12619 21.5371 7.02566 21.9921C6.90684 22.5293 6.80566 22.9928 6.72471 23.3669C6.60329 23.9238 6.52625 24.2821 6.50341 24.3814C6.2821 25.3965 6.12412 26.3607 6.02163 27.276C5.06852 35.7959 9.01739 40 13.6419 40C14.4149 40 15.1806 39.908 15.9411 39.7147C21.0363 38.4228 25.9416 32.5781 31.7477 19.1236C31.6596 20.5872 31.6504 21.9542 31.7138 23.2226C32.0963 30.9337 35.1463 33.2473 39.4555 33.2473C42.7143 33.2473 45.7662 31.5467 47.318 29.4329C48.4565 27.9379 48.9219 26.2883 48.9219 24.9996C48.9219 23.9995 48.6047 23.2011 48.1 22.7957Z" fill="#05100B"/>
</svg>
