<svg width="190" height="48" viewBox="0 0 190 48" fill="none" xmlns="http://www.w3.org/2000/svg">
<path d="M7.65784 31.3923C7.31736 30.3595 7.14844 29.0559 7.14844 27.3031C7.14844 25.5497 7.31736 24.2434 7.65784 23.2133C8.60908 20.2576 11.1289 18.6426 14.4285 18.6426C16.8788 18.6426 18.819 19.6395 20.1134 21.2207C20.2134 21.3572 20.2472 21.5632 20.079 21.7003L17.936 23.5909C17.7651 23.7293 17.5955 23.6949 17.4584 23.5233C16.641 22.5959 15.7904 22.0792 14.4291 22.0792C12.9665 22.0792 11.8444 22.8013 11.3668 24.2447C11.0965 25.0714 11.0269 26.0326 11.0269 27.3038C11.0269 28.575 11.0958 29.5712 11.3668 30.3966C11.8437 31.8043 12.9665 32.5263 14.4291 32.5263C15.7904 32.5263 16.641 32.0103 17.4584 31.0849C17.5955 30.9107 17.7651 30.9107 17.936 31.0485L20.079 32.939C20.2472 33.0761 20.2134 33.2484 20.1134 33.4206C18.8197 34.968 16.8794 35.9636 14.4285 35.9636C11.1289 35.9623 8.60908 34.346 7.65784 31.3923Z" fill="#05100B"/>
<path d="M82.0172 31.3923C81.6767 30.3595 81.5078 29.0559 81.5078 27.3031C81.5078 25.5497 81.6767 24.2434 82.0172 23.2133C82.9704 20.2576 85.4877 18.6426 88.7872 18.6426C91.2382 18.6426 93.1791 19.6395 94.4714 21.2207C94.5728 21.3572 94.6079 21.5632 94.4363 21.7003L92.2927 23.5909C92.1225 23.7293 91.9536 23.6949 91.8171 23.5233C91.001 22.5959 90.1498 22.0792 88.7872 22.0792C87.3252 22.0792 86.2017 22.8013 85.7261 24.2447C85.4532 25.0714 85.387 26.0326 85.387 27.3038C85.387 28.575 85.4532 29.5712 85.7261 30.3966C86.2017 31.8043 87.3252 32.5263 88.7872 32.5263C90.1498 32.5263 91.001 32.0103 91.8171 31.0849C91.9536 30.9107 92.1232 30.9107 92.2927 31.0485L94.4363 32.939C94.6079 33.0761 94.5728 33.2484 94.4714 33.4206C93.1791 34.968 91.2382 35.9636 88.7872 35.9636C85.4877 35.9623 82.9704 34.346 82.0172 31.3923Z" fill="#05100B"/>
<path d="M167.949 35.5854C167.745 35.5854 167.609 35.4489 167.609 35.2409V25.6881C167.609 23.5571 166.553 22.0786 164.511 22.0786C162.538 22.0786 161.381 23.5564 161.381 25.6881V35.2409C161.381 35.4483 161.244 35.5854 161.041 35.5854H157.909C157.705 35.5854 157.568 35.4489 157.568 35.2409V25.6881C157.568 23.5571 156.514 22.0786 154.475 22.0786C152.5 22.0786 151.342 23.5564 151.342 25.6881V35.2409C151.342 35.4483 151.206 35.5854 151.002 35.5854H147.871C147.666 35.5854 147.531 35.4489 147.531 35.2409V19.364C147.531 19.1573 147.666 19.0195 147.871 19.0195H151.002C151.206 19.0195 151.342 19.1573 151.342 19.364V20.5669H151.377C152.092 19.5355 153.52 18.6426 155.698 18.6426C157.638 18.6426 159.203 19.4315 160.188 20.8412H160.223C161.482 19.468 163.116 18.6426 165.464 18.6426C169.274 18.6426 171.42 21.2539 171.42 24.7938V35.2403C171.42 35.4483 171.282 35.5854 171.078 35.5854H167.949Z" fill="#05100B"/>
<path d="M176.154 41.7731C175.951 41.7731 175.815 41.6353 175.815 41.428V38.6796C175.815 38.4742 175.951 38.3345 176.154 38.3345H176.768C178.06 38.3345 178.709 37.7528 179.218 36.377L179.695 34.968L173.705 19.3659C173.637 19.1593 173.774 19.0215 173.979 19.0215H177.347C177.551 19.0215 177.687 19.1593 177.754 19.3659L181.464 30.1913H181.531L185.071 19.3659C185.14 19.1593 185.276 19.0215 185.478 19.0215H188.71C188.916 19.0215 189.053 19.1593 188.983 19.3659L182.723 36.6175C181.295 40.5357 179.932 41.7718 177.21 41.7718L176.154 41.7731Z" fill="#05100B"/>
<path d="M23.2476 31.3928C22.8734 30.2223 22.7031 29.1234 22.7031 27.3024C22.7031 25.484 22.8734 24.3837 23.2476 23.2179C24.1664 20.331 26.6823 18.6465 30.0163 18.6465C33.3152 18.6465 35.8324 20.3304 36.7511 23.2179C37.1234 24.3837 37.295 25.484 37.295 27.3024C37.295 29.1234 37.1234 30.2223 36.7511 31.3928C35.8317 34.2777 33.3152 35.9609 30.0163 35.9609C26.6823 35.9616 24.1664 34.2784 23.2476 31.3928ZM33.0773 30.3621C33.3503 29.5043 33.4178 28.7127 33.4178 27.303C33.4178 25.8974 33.3503 25.1402 33.0773 24.2479C32.6017 22.8747 31.5465 22.0825 30.0163 22.0825C28.4867 22.0825 27.3964 22.8747 26.9214 24.2479C26.6505 25.1409 26.5816 25.8974 26.5816 27.303C26.5816 28.7127 26.6505 29.5043 26.9214 30.3621C27.3964 31.738 28.4874 32.5256 30.0163 32.5256C31.5465 32.5249 32.6017 31.7373 33.0773 30.3621Z" fill="#05100B"/>
<path d="M103.586 18.6426C100.897 18.6426 99.095 19.2951 97.7668 20.2576C97.6324 20.3622 97.5973 20.5318 97.7006 20.7034L98.9566 22.9728C99.0619 23.1451 99.2633 23.1795 99.4348 23.0417C100.218 22.4244 101.339 21.907 103.178 21.907C105.859 21.907 106.769 22.7205 106.816 24.5083H106.816V24.5302C106.818 24.5719 106.818 24.6143 106.818 24.6587V30.0204C106.818 31.9103 105.525 32.8363 103.178 32.8363C101.339 32.8363 100.354 32.1507 100.354 30.7769C100.354 29.2294 101.443 28.5405 103.892 28.5405L104.637 28.5418C104.841 28.5418 104.978 28.4041 104.978 28.1994V25.9961C104.978 25.7908 104.841 25.6537 104.637 25.6537H104.473L103.28 25.653C99.2315 25.653 96.7109 27.3051 96.7109 30.9113C96.7109 34.3831 99.2315 35.963 102.224 35.963C104.536 35.963 106.068 35.1734 106.851 34.0393H106.884V35.2423C106.884 35.4489 107.022 35.5867 107.226 35.5867H110.083C110.288 35.5867 110.424 35.4496 110.424 35.2423V24.4169C110.425 20.3622 108.588 18.6426 103.586 18.6426Z" fill="#05100B"/>
<path d="M62.9331 25.651C62.8443 25.651 62.786 25.71 62.786 25.7987V25.8968V26.1843V28.0046V28.249V28.3901C62.786 28.4789 62.8443 28.5385 62.9331 28.5385H63.0179H71.3591C71.5976 28.5385 71.7341 28.4021 71.7341 28.1974C71.7341 25.5146 71.5625 24.3798 71.1895 23.2126C70.2694 20.3947 67.8205 18.6426 64.4514 18.6426C61.185 18.6426 58.6677 20.3258 57.7476 23.2126C57.4091 24.2778 57.2031 25.5841 57.2031 27.3024C57.2031 29.0208 57.4416 30.2913 57.7841 31.3578C58.7022 34.2433 61.1512 35.9616 64.6216 35.9616C67.6489 35.9616 69.9647 34.7931 71.3585 33.1437C71.4936 32.9728 71.4936 32.8012 71.324 32.6621L69.3182 30.8756C69.1466 30.7384 68.977 30.7742 68.8061 30.9444C67.9907 31.8387 66.7997 32.5257 64.9621 32.5257C63.1265 32.5257 61.8321 31.6327 61.2876 30.0184C61.2055 29.7925 61.1373 29.5553 61.0942 29.2977H61.0935C60.9697 28.5981 60.8968 27.9172 60.8968 26.9169C60.9233 25.9743 60.9776 25.3721 61.1114 24.607C61.1128 24.5964 61.1147 24.5872 61.1167 24.5772C61.1181 24.5693 61.1194 24.5633 61.1207 24.5554V24.556C61.1532 24.3759 61.1975 24.2063 61.2525 24.0374C61.695 22.6973 62.9198 21.907 64.4865 21.907C66.018 21.907 67.2408 22.6973 67.6833 24.0374C67.8205 24.452 67.8874 24.8621 67.8874 25.4477C67.8874 25.5848 67.8198 25.6523 67.6833 25.6523H63.2126L63.2133 25.6517L62.9331 25.651Z" fill="#05100B"/>
<path d="M54.047 12.2207H50.9217C50.7157 12.2207 50.5799 12.3578 50.5799 12.5619V20.5911V27.2312V27.2842V27.3372V28.2189H50.5626C50.5262 29.1662 50.4235 29.7888 50.2414 30.3724C49.7995 31.7437 48.7443 32.4982 47.183 32.4982C45.6541 32.4982 44.6015 31.7437 44.1577 30.3724C43.9205 29.6166 43.8198 28.7939 43.8198 27.2842C43.8198 25.7752 43.9205 24.9505 44.1577 24.1973C44.5929 22.8519 45.6117 22.0921 47.0902 22.0623H48.4243C48.4893 22.0464 48.5317 21.9954 48.5317 21.9212L48.5489 18.784C48.5489 18.7038 48.4985 18.6502 48.4243 18.6409L47.3592 18.6369H46.1072V18.6376C43.3681 18.6667 41.3629 20.0022 40.5229 22.6155C40.1149 23.8867 39.9453 25.0552 39.9453 27.2842C39.9453 29.5139 40.1149 30.6811 40.5229 31.9497C41.3722 34.5927 43.4111 35.9308 46.1966 35.9308C48.4065 35.9308 49.7657 35.1088 50.5454 33.9747H50.5785V35.2101C50.5785 35.4168 50.715 35.5539 50.9204 35.5539H54.0457C54.2497 35.5539 54.3862 35.4175 54.3862 35.2101V12.5619C54.3875 12.3572 54.251 12.2207 54.047 12.2207Z" fill="#05100B"/>
<path d="M135.978 25.651C135.891 25.651 135.831 25.71 135.831 25.7987V25.8968V26.1843V28.0046V28.249V28.3901C135.831 28.4789 135.891 28.5385 135.978 28.5385H136.064H144.406C144.644 28.5385 144.78 28.4021 144.78 28.1974C144.78 25.5146 144.609 24.3798 144.236 23.2126C143.316 20.3947 140.867 18.6426 137.499 18.6426C134.232 18.6426 131.715 20.3258 130.795 23.2126C130.455 24.2778 130.25 25.5841 130.25 27.3024C130.25 29.0208 130.488 30.2913 130.831 31.3578C131.748 34.2433 134.198 35.9616 137.668 35.9616C140.696 35.9616 143.012 34.7931 144.406 33.1437C144.541 32.9728 144.541 32.8012 144.371 32.6621L142.365 30.8756C142.194 30.7384 142.025 30.7742 141.854 30.9444C141.038 31.8387 139.848 32.5257 138.009 32.5257C136.173 32.5257 134.88 31.6327 134.335 30.0184C134.253 29.7925 134.184 29.5553 134.142 29.2977H134.142C134.017 28.5981 133.944 27.9172 133.944 26.9169C133.97 25.9743 134.024 25.3721 134.158 24.607C134.161 24.5964 134.162 24.5872 134.164 24.5772C134.165 24.5693 134.166 24.5633 134.168 24.5554V24.556C134.201 24.3759 134.245 24.2063 134.3 24.0374C134.742 22.6973 135.967 21.907 137.534 21.907C139.066 21.907 140.288 22.6973 140.731 24.0374C140.867 24.452 140.936 24.8621 140.936 25.4477C140.936 25.5848 140.867 25.6523 140.731 25.6523H136.26V25.6517L135.978 25.651Z" fill="#05100B"/>
<path d="M124.122 12.2207C123.917 12.2207 123.781 12.3585 123.781 12.5625V20.603V27.2538V27.3597V28.2427C123.727 29.1913 123.624 29.8147 123.441 30.3989C122.999 31.7728 121.942 32.5293 120.379 32.5293C118.849 32.5293 117.794 31.7728 117.35 30.3989C117.113 29.6418 117.01 28.8184 117.01 27.3061C117.01 25.7951 117.112 24.9684 117.35 24.2146C117.785 22.8672 118.806 22.1133 120.287 22.0835L121.623 22.0842C121.828 22.0842 121.964 21.9471 121.964 21.7424V18.9887C121.964 18.7833 121.828 18.6462 121.623 18.6462H121.459L119.44 18.6456H119.393H119.349H119.303C116.56 18.6747 114.552 20.0128 113.711 22.63C113.302 23.9032 113.133 25.0724 113.133 27.3048C113.133 29.5378 113.302 30.7076 113.711 31.9782C114.561 34.6239 116.604 35.9646 119.393 35.9646C121.606 35.9646 122.967 35.1419 123.749 34.0058L123.782 35.2426C123.782 35.4506 123.918 35.587 124.124 35.587H127.254C127.458 35.587 127.596 35.4512 127.596 35.2426V12.5625C127.593 12.3578 127.456 12.2207 127.253 12.2207H124.122Z" fill="#05100B"/>
<path d="M81.7656 40.2741V43.4054C81.7656 43.6114 81.9021 43.7478 82.1068 43.7478H93.7098C93.9171 43.7478 94.0543 43.6107 94.0543 43.4054V40.2741C94.0543 40.0707 93.9171 39.9336 93.7098 39.9336H82.1068C81.9021 39.9336 81.7656 40.0707 81.7656 40.2741Z" fill="#05100B"/>
<path d="M78.8145 4.11062C78.8092 4.10533 78.8059 4.0987 78.8013 4.09406C78.8006 4.0934 78.8 4.0934 78.8 4.0934C78.7403 4.03445 78.6555 4 78.5549 4H78.5509H0.341811C0.315976 4 0.291467 4.00265 0.267619 4.00662C0.260995 4.00795 0.255033 4.0106 0.247747 4.01192C0.232511 4.0159 0.21595 4.01921 0.202039 4.02517C0.19939 4.02583 0.197402 4.02716 0.195415 4.02848C0.0741915 4.07817 0 4.19144 0 4.34115V4.34247V43.399V43.4016C0 43.5209 0.0463697 43.6143 0.124536 43.6739C0.130497 43.6799 0.135797 43.6851 0.143746 43.6891V43.6898C0.198065 43.7242 0.264307 43.7428 0.341811 43.7428H78.5502H78.5542C78.6695 43.7428 78.7629 43.6984 78.8218 43.6222C78.8682 43.5653 78.8954 43.4904 78.8954 43.401V43.3983V4.34247V4.34115C78.8954 4.24775 78.8655 4.16892 78.8145 4.11062ZM4.15075 39.9305C4.12624 39.9305 4.10239 39.9285 4.08119 39.9252C4.07457 39.9239 4.06728 39.9206 4.06066 39.9186C4.04476 39.9153 4.02886 39.912 4.01429 39.906C4.01164 39.9054 4.01031 39.9034 4.00766 39.9027C3.8871 39.8537 3.81357 39.7411 3.81291 39.5927V11.2834V8.1534C3.81291 8.00303 3.8871 7.89108 4.00766 7.84073C4.01098 7.84007 4.01296 7.83808 4.01495 7.83742C4.02886 7.83212 4.07391 7.82086 4.08119 7.81887C4.10372 7.81556 4.12756 7.81357 4.15207 7.81357H74.7426C74.7678 7.81357 74.791 7.81556 74.8135 7.81887C74.8208 7.82086 74.8274 7.82351 74.8334 7.8255C74.8493 7.82881 74.8652 7.83212 74.8797 7.83808C74.883 7.83875 74.8844 7.84073 74.887 7.8414C75.0082 7.89108 75.0818 8.00369 75.0818 8.15406V39.5934C75.0811 39.7424 75.0069 39.855 74.8877 39.904C74.885 39.9047 74.8837 39.9067 74.8804 39.9073C74.8665 39.9126 74.8499 39.9166 74.8347 39.9199C74.8274 39.9219 74.8214 39.9252 74.8142 39.9266C74.7916 39.9305 74.7698 39.9319 74.7453 39.9319H4.15075V39.9305Z" fill="#05100B"/>
</svg>
